<?xml version="1.0" encoding="UTF-8" standalone="no"?>
<svg
   xmlns:dc="http://purl.org/dc/elements/1.1/"
   xmlns:cc="http://creativecommons.org/ns#"
   xmlns:rdf="http://www.w3.org/1999/02/22-rdf-syntax-ns#"
   xmlns:svg="http://www.w3.org/2000/svg"
   xmlns="http://www.w3.org/2000/svg"
   xmlns:sodipodi="http://sodipodi.sourceforge.net/DTD/sodipodi-0.dtd"
   xmlns:inkscape="http://www.inkscape.org/namespaces/inkscape"
   id="svg8"
   version="1.1"
   viewBox="0 0 151.61214 177.08397"
   height="177.08397mm"
   width="151.61214mm"
   sodipodi:docname="rust-roma-name.svg"
   inkscape:version="0.92.1 r15371">
  <sodipodi:namedview
     pagecolor="#ffffff"
     bordercolor="#666666"
     borderopacity="1"
     objecttolerance="10"
     gridtolerance="10"
     guidetolerance="10"
     inkscape:pageopacity="0"
     inkscape:pageshadow="2"
     inkscape:window-width="1920"
     inkscape:window-height="989"
     id="namedview30"
     showgrid="false"
     fit-margin-top="0"
     fit-margin-left="0"
     fit-margin-right="0"
     fit-margin-bottom="0"
     inkscape:zoom="1.410442"
     inkscape:cx="299.5281"
     inkscape:cy="550.70391"
     inkscape:window-x="0"
     inkscape:window-y="27"
     inkscape:window-maximized="1"
     inkscape:current-layer="layer1"
     inkscape:pagecheckerboard="true" />
  <defs
     id="defs2" />
  <metadata
     id="metadata5">
    <rdf:RDF>
      <cc:Work
         rdf:about="">
        <dc:format>image/svg+xml</dc:format>
        <dc:type
           rdf:resource="http://purl.org/dc/dcmitype/StillImage" />
        <dc:title></dc:title>
      </cc:Work>
    </rdf:RDF>
  </metadata>
  <g
     transform="translate(-27.095645,-34.736069)"
     id="layer1">
    <g
       id="g4647"
       transform="translate(8.0663248,-5.4400795)">
      <g
         id="g5614"
         transform="matrix(0.20272745,0,0,0.21086347,56.970559,92.335262)"
         style="fill:none;fill-opacity:1;stroke:#000000;stroke-opacity:1">
        <g
           id="g5551"
           style="fill:none;fill-opacity:1;stroke:#000000;stroke-opacity:1">
          <g
             id="g5549"
             style="fill:none;fill-opacity:1;stroke:#000000;stroke-opacity:1">
            <g
               id="g5622"
               style="fill:none;fill-opacity:1;stroke:#000000;stroke-opacity:1" />
          </g>
        </g>
        <g
           id="g5553"
           style="fill:none;fill-opacity:1;stroke:#000000;stroke-opacity:1" />
        <g
           id="g5555"
           style="fill:none;fill-opacity:1;stroke:#000000;stroke-opacity:1" />
        <g
           id="g5557"
           style="fill:none;fill-opacity:1;stroke:#000000;stroke-opacity:1" />
        <g
           id="g5559"
           style="fill:none;fill-opacity:1;stroke:#000000;stroke-opacity:1" />
        <g
           id="g5561"
           style="fill:none;fill-opacity:1;stroke:#000000;stroke-opacity:1" />
        <g
           id="g5563"
           style="fill:none;fill-opacity:1;stroke:#000000;stroke-opacity:1" />
        <g
           id="g5565"
           style="fill:none;fill-opacity:1;stroke:#000000;stroke-opacity:1" />
        <g
           id="g5567"
           style="fill:none;fill-opacity:1;stroke:#000000;stroke-opacity:1" />
        <g
           id="g5569"
           style="fill:none;fill-opacity:1;stroke:#000000;stroke-opacity:1" />
        <g
           id="g5571"
           style="fill:none;fill-opacity:1;stroke:#000000;stroke-opacity:1" />
        <g
           id="g5573"
           style="fill:none;fill-opacity:1;stroke:#000000;stroke-opacity:1" />
        <g
           id="g5575"
           style="fill:none;fill-opacity:1;stroke:#000000;stroke-opacity:1" />
        <g
           id="g5577"
           style="fill:none;fill-opacity:1;stroke:#000000;stroke-opacity:1" />
        <g
           id="g5579"
           style="fill:none;fill-opacity:1;stroke:#000000;stroke-opacity:1" />
        <g
           id="g5581"
           style="fill:none;fill-opacity:1;stroke:#000000;stroke-opacity:1" />
      </g>
      <g
         aria-label="Rust Roma"
         transform="matrix(0.26458333,0,0,0.26458333,17.422023,40.176149)"
         style="font-style:normal;font-weight:normal;font-size:40px;line-height:140.8999939px;font-family:sans-serif;text-align:center;letter-spacing:0px;word-spacing:0px;text-anchor:middle;fill:#000000;fill-opacity:1;stroke:none;stroke-width:1px;stroke-linecap:butt;stroke-linejoin:miter;stroke-opacity:1"
         id="flowRoot4502">
        <path
           id="path4682"
           style="font-style:normal;font-variant:normal;font-weight:bold;font-stretch:normal;font-size:96px;line-height:140.8999939px;font-family:sans-serif;-inkscape-font-specification:'sans-serif Bold';fill:#000000;fill-opacity:1;stroke:none;stroke-opacity:1"
           d="m 550.5625,644.30937 q -5.25,0 -7.92188,1.78125 -2.625,1.78125 -2.625,5.25 0,3.1875 2.10938,5.01563 2.15625,1.78125 5.95312,1.78125 4.73438,0 7.96875,-3.375 3.23438,-3.42188 3.23438,-8.53125 v -1.92188 z m 25.64062,-6.32812 v 29.95312 h -16.92187 v -7.78125 q -3.375,4.78125 -7.59375,6.98438 -4.21875,2.15625 -10.26563,2.15625 -8.15625,0 -13.26562,-4.73438 -5.0625,-4.78125 -5.0625,-12.375 0,-9.23437 6.32812,-13.54687 6.375,-4.3125 19.96875,-4.3125 h 9.89063 v -1.3125 q 0,-3.98438 -3.14063,-5.8125 -3.14062,-1.875 -9.79687,-1.875 -5.39063,0 -10.03125,1.07812 -4.64063,1.07813 -8.625,3.23438 v -12.79688 q 5.39062,-1.3125 10.82812,-1.96875 5.4375,-0.70312 10.875,-0.70312 14.20313,0 20.48438,5.625 6.32812,5.57812 6.32812,18.1875 z M 475.5625,624.15312 q 3.1875,-4.875 7.54687,-7.40625 4.40625,-2.57812 9.65625,-2.57812 9.04688,0 13.78125,5.57812 4.73438,5.57813 4.73438,16.21875 v 31.96875 h -16.875 v -27.375 q 0.0469,-0.60937 0.0469,-1.26562 0.0469,-0.65625 0.0469,-1.875 0,-5.57813 -1.64063,-8.0625 -1.64062,-2.53125 -5.29687,-2.53125 -4.78125,0 -7.40625,3.9375 -2.57813,3.9375 -2.67188,11.39062 v 25.78125 h -16.875 v -27.375 q 0,-8.71875 -1.5,-11.20312 -1.5,-2.53125 -5.34375,-2.53125 -4.82812,0 -7.45312,3.98437 -2.625,3.9375 -2.625,11.29688 v 25.82812 h -16.875 v -52.5 h 16.875 v 7.6875 q 3.09375,-4.45312 7.07812,-6.70312 4.03125,-2.25 8.85938,-2.25 5.4375,0 9.60937,2.625 4.17188,2.625 6.32813,7.35937 z m -89.67188,2.01563 q -5.57812,0 -8.53125,4.03125 -2.90625,3.98437 -2.90625,11.53125 0,7.54687 2.90625,11.57812 2.95313,3.98438 8.53125,3.98438 5.48438,0 8.39063,-3.98438 2.90625,-4.03125 2.90625,-11.57812 0,-7.54688 -2.90625,-11.53125 -2.90625,-4.03125 -8.39063,-4.03125 z m 0,-12 q 13.54688,0 21.14063,7.3125 7.64062,7.3125 7.64062,20.25 0,12.9375 -7.64062,20.25 -7.59375,7.3125 -21.14063,7.3125 -13.59375,0 -21.28125,-7.3125 -7.64062,-7.3125 -7.64062,-20.25 0,-12.9375 7.64062,-20.25 7.6875,-7.3125 21.28125,-7.3125 z m -72.46875,14.8125 q 5.67188,0 8.10938,-2.10938 2.48437,-2.10937 2.48437,-6.9375 0,-4.78125 -2.48437,-6.84375 -2.4375,-2.0625 -8.10938,-2.0625 h -7.59375 v 17.95313 z M 305.82812,641.45 v 26.48437 H 287.78125 V 597.95 h 27.5625 q 13.82812,0 20.25,4.64062 6.46875,4.64063 6.46875,14.67188 0,6.9375 -3.375,11.39062 -3.32813,4.45313 -10.07813,6.5625 3.70313,0.84375 6.60938,3.84375 2.95312,2.95313 5.95312,9 l 9.79688,19.875 H 331.75 l -8.53125,-17.39062 q -2.57813,-5.25 -5.25,-7.17188 -2.625,-1.92187 -7.03125,-1.92187 z m -79.78125,-40.92188 v 14.90625 h 17.29688 v 12 H 226.04687 V 649.7 q 0,3.65625 1.45313,4.96875 1.45312,1.26562 5.76562,1.26562 h 8.625 v 12 H 227.5 q -9.9375,0 -14.10938,-4.125 -4.125,-4.17187 -4.125,-14.10937 v -22.26563 h -8.34375 v -12 h 8.34375 v -14.90625 z m -34.5,16.54688 v 12.75 q -5.39062,-2.25 -10.40625,-3.375 -5.01562,-1.125 -9.46875,-1.125 -4.78125,0 -7.125,1.21875 -2.29687,1.17187 -2.29687,3.65625 0,2.01562 1.73437,3.09375 1.78125,1.07812 6.32813,1.59375 l 2.95312,0.42187 q 12.89063,1.64063 17.34375,5.39063 4.45313,3.75 4.45313,11.76562 0,8.39063 -6.1875,12.60938 -6.1875,4.21875 -18.46875,4.21875 -5.20313,0 -10.78125,-0.84375 -5.53125,-0.79688 -11.39063,-2.4375 v -12.75 Q 153.25,655.7 158.5,656.91875 q 5.29687,1.21875 10.73437,1.21875 4.92188,0 7.40625,-1.35938 2.48438,-1.35937 2.48438,-4.03125 0,-2.25 -1.73438,-3.32812 -1.6875,-1.125 -6.79687,-1.73438 l -2.95313,-0.375 q -11.20312,-1.40625 -15.70312,-5.20312 -4.5,-3.79688 -4.5,-11.53125 0,-8.34375 5.71875,-12.375 5.71875,-4.03125 17.53125,-4.03125 4.64062,0 9.75,0.70312 5.10937,0.70313 11.10937,2.20313 z M 81.53125,647.49687 v -32.0625 h 16.875 v 5.25 q 0,4.26563 -0.04687,10.73438 -0.04687,6.42187 -0.04687,8.57812 0,6.32813 0.328125,9.14063 0.328125,2.76562 1.125,4.03125 1.031255,1.64062 2.671875,2.53125 1.6875,0.89062 3.84375,0.89062 5.25,0 8.25,-4.03125 3,-4.03125 3,-11.20312 v -25.92188 h 16.78125 v 52.5 h -16.78125 v -7.59375 q -3.79687,4.59375 -8.0625,6.79688 -4.21875,2.15625 -9.32812,2.15625 -9.093755,0 -13.875005,-5.57813 Q 81.53126,658.1375 81.53126,647.49687 Z M 34.609375,628.98125 q 5.671875,0 8.109375,-2.10938 2.484375,-2.10937 2.484375,-6.9375 0,-4.78125 -2.484375,-6.84375 -2.4375,-2.0625 -8.109375,-2.0625 h -7.59375 v 17.95313 z M 27.015625,641.45 v 26.48437 H 8.96875 V 597.95 h 27.5625 q 13.828125,0 20.25,4.64062 6.46875,4.64063 6.46875,14.67188 0,6.9375 -3.375,11.39062 -3.328125,4.45313 -10.078125,6.5625 3.703125,0.84375 6.609375,3.84375 2.953125,2.95313 5.953125,9 l 9.796875,19.875 H 52.9375 l -8.53125,-17.39062 q -2.578125,-5.25 -5.25,-7.17188 Q 36.53125,641.45 32.125,641.45 Z m 456.744505,-207.38097 -1.70656,-0.2722 C 433.0905,426.05104 383.73474,421.7161 335.35638,420.9321 l -4.58943,-0.081 42.47768,71.895 h 13.69907 l -0.82169,-3.24085 c -10.36223,-18.40438 -26.54815,-47.21604 -17.18061,-55.62924 0.75731,-0.59528 1.45545,-1.06595 2.07129,-0.99642 14.14222,1.59684 18.04494,35.17259 19.05211,38.75616 l 15.82915,-22.90705 7.20249,1.41421 c 7.04313,-5.94862 6.8011,-0.47565 13.81157,-12.21214 0,0 2.33758,-3.10647 3.96528,-0.72353 1.58332,1.49756 10.11978,32.67226 15.73723,54.24865 l 0.50255,1.29109 h 14.64187 l -0.67554,-3.14571 c -3.95886,-18.50515 -6.20514,-39.67152 -2.29471,-45.28817 0.57174,-0.81131 1.08898,-0.9734 1.71175,-1.03418 5.54259,0 14.86675,18.74829 22.67638,45.59208 l 0.95664,3.30075 2.8526,-1.84285 c 5.09196,-3.30075 7.35899,-9.36578 5.89204,-15.84306 z M 319.98197,420.80884 c -71.88208,-0.2908 -129.17967,7.15344 -166.39687,13.96768 6.57342,2.47899 0.93625,13.29726 10.27808,12.62928 2.625,-0.1877 3.8659,-3.13188 3.86177,0.92766 0.0828,0.0615 19.03893,2.61647 19.13075,2.70295 4.54792,4.29615 -4.44787,32.70735 -16.12601,39.01067 l -0.10143,2.69207 h 20.25117 l -0.19182,-2.76763 c -1.4782,-21.95039 0.71167,-42.23109 4.59702,-42.54205 h 0.0794 c 0,0 6.32965,15.78924 6.88904,42.63321 l 4.65093,2.68511 h 20.11226 l -0.29985,-2.87126 c -1.64427,-15.54091 -2.65437,-41.25297 2.12103,-46.80267 h 0.0574 c 3.45806,0 10.25521,18.44382 14.93978,47.49783 l 1.23665,9.78398 h 21.0093 l -2.08739,-10.4921 c -1.41245,-12.4049 -3.8153,-41.09722 3.62673,-49.6041 0.95835,-1.09497 1.97139,-1.60618 3.17713,-1.60618 7.89093,0 19.56434,40.6095 25.90095,64.16311 l 5.58116,-0.68652 11.95888,0.68652 c 0.0727,0.28629 0.12743,0.53199 0.19403,0.81387 0,0 7.45219,8.58304 4.93216,-1.3104 -1.26001,-4.94672 -4.42888,-14.58781 -5.16789,-19.06796 -1.01303,-6.14129 -7.95896,-29.30992 -5.38352,-38.6393 0.89549,-3.24384 2.26409,-4.12363 4.67042,-4.22715 6.71377,-0.28885 33.04921,55.62096 33.04921,55.62096 l 16.11043,-3.25 -41.21228,-71.9303 z m -182.47754,17.28753 c -6.03265,1.31773 -16.70078,3.53534 -20.69994,4.54048 l -1.93583,0.48575 v 31.53845 c 0,9.96919 7.96747,18.0781 17.75091,18.0781 h 5.54068 l -0.20504,-2.78059 c 0.92402,-23.10043 1.68624,-31.36671 -0.45078,-51.86219 z m -14.57713,-64.18165 -0.51291,1.02714 c -0.27938,0.54791 -0.55876,1.10905 -0.82344,1.55391 -3.7755,6.14519 -6.7293,18.07791 -6.7293,27.18911 v 34.14385 l 3.14236,-0.76991 c 4.4839,-1.08704 16.12699,-3.67425 16.13737,-3.67425 l 2.13902,-0.47305 -0.14272,-2.22781 c -1.02064,-15.97784 0.35722,-31.65794 2.47635,-32.94318 2.00149,1.27115 4.30053,13.10434 4.66381,30.70304 l 0.0718,3.05322 2.94948,-0.56906 c 3.8594,-0.74085 11.11806,-2.0578 11.11806,-2.0578 l 2.37602,-0.42636 -0.29841,-2.44627 c -1.46263,-11.99175 -2.20822,-33.03567 2.0162,-38.49287 0.61065,-0.784 1.11492,-0.932 1.60794,-0.97781 0.29062,0 0.69369,0.0749 1.26369,0.68095 4.41557,4.67406 5.3895,24.8917 4.97087,36.53814 l -0.11418,3.10606 20.7562,-3.03911 -0.17558,-2.42601 c -1.73077,-23.41532 0.22575,-45.02302 4.16473,-45.34808 3.8819,0 9.31205,20.59819 11.38534,43.21893 l 0.23872,2.60131 20.085,-2.08597 -0.2863,-2.60924 c -1.64513,-15.05994 -2.68826,-40.84313 1.51972,-45.96207 0.14185,-0.17706 0.36069,-0.4061 0.57866,-0.42107 3.99347,0 11.04195,21.15315 15.08039,45.24941 l 0.38836,2.29476 18.29801,-1.17602 -0.27245,-2.6938 c -1.01719,-9.97272 -2.11222,-37.59611 4.91032,-45.52513 1.15384,-1.2958 2.38984,-1.90275 3.90698,-1.90275 7.8944,0 18.94412,27.45778 24.25838,46.94779 l 0.53194,1.92037 1.9617,-0.0281 c 0,0 12.03751,-0.16208 18.45544,-0.17618 h 4.0073 l -29.53716,-64.16594 -1.67281,0.0511 c -83.9676,2.39689 -142.52037,16.21475 -163.79986,22.04193 z m 4.6197,-21.86933 c 0,3.40646 -0.51638,7.61454 -1.44533,11.80852 l -0.9255,4.11999 4.02288,-1.02713 c 4.18723,-1.0659 13.8911,-3.33599 13.89715,-3.33599 l 2.15286,-0.49506 -0.18337,-2.24191 c -1.48685,-18.39151 0.18337,-33.31667 2.41062,-33.91217 2.4504,1.3011 4.78144,16.02364 4.97778,31.50907 l 0.0398,3.08492 16.79214,-3.22587 -0.28457,-2.41808 c -1.03794,-8.84693 -2.62945,-33.24357 2.43656,-39.74993 0.71964,-0.92671 1.33289,-1.09408 1.9496,-1.14869 0.33128,0 0.84938,0.081 1.52145,0.7981 4.64478,4.92248 5.63601,25.63431 5.16461,37.54149 l -0.12109,3.12017 21.37377,-3.17038 -0.16261,-2.3987 c -1.6607,-24.7076 0.6392,-46.69322 5.0072,-47.05351 4.28409,0 10.02216,20.90739 12.26671,44.73585 l 0.24651,2.58016 19.01419,-1.87455 -0.34858,-2.66034 c -2.16496,-16.84905 -3.6397,-45.99818 1.64428,-52.55915 0.64957,-0.81044 1.18757,-0.93552 1.64081,-0.96195 5.55643,0 13.13339,22.00499 18.02209,52.31515 l 0.3728,2.30356 2.29124,-0.13214 c 7.13323,-0.4149 14.42132,-0.78048 21.97751,-1.03594 l 3.85595,-0.13919 -34.04356,-76.08898 -1.89078,0.27044 c -67.77227,9.67937 -108.28133,33.40212 -122.54867,43.14405 l -1.12617,0.76638 v 37.53181 z m 122.48899,-86.46428 2.43657,-0.34795 -4.17858,-40.03005 c -1.03101,-9.84939 -9.62688,-18.17658 -19.406,-18.17658 h -0.019 c -40.00913,1.61998 -73.00178,24.37198 -89.10109,37.79519 -6.7345,5.60784 -12.22174,18.09554 -12.22174,27.84803 v 35.55153 l 3.8819,-2.46213 c 17.77904,-11.21654 56.83585,-31.34697 118.60796,-40.17804 z m 186.74265,36.7619 h -153.9403 l 17.33446,43.87079 1.75413,-0.0281 c 4.89994,-0.081 9.89069,-0.1198 14.94806,-0.1198 48.25382,0 97.40458,3.9253 146.07791,11.68167 l 3.71148,0.59637 -8.79307,-38.88928 c -2.12259,-9.44244 -11.57735,-17.11158 -21.09267,-17.11158 z m -15.1124,70.80268 c 6.39198,0 16.66845,25.07493 23.09503,48.66291 l 0.45756,1.66315 1.68405,0.20789 c 11.76505,1.4535 22.20153,2.8832 31.93394,4.39835 l 3.70198,0.56554 -14.64878,-64.85657 -1.69097,-0.2722 c -49.85138,-8.17215 -100.09458,-12.30799 -149.34569,-12.30799 -3.69246,0 -7.33823,0.0194 -10.95026,0.0704 l -3.72276,0.0476 25.45635,64.41877 1.69877,0.0141 c 4.4441,0.0564 8.96347,0.14888 13.50791,0.25811 l 3.34822,0.081 -0.82171,-3.3078 c -4.28409,-17.23753 -6.56496,-37.4904 -2.04473,-43.8655 0.84852,-1.19275 1.87175,-1.79705 3.60857,-1.90981 9.84746,0 18.34644,29.34909 21.39281,47.84103 l 0.32954,2.05428 2.04128,0.11275 c 0,0 8.79396,0.48009 13.60826,0.79105 l 3.52813,0.21494 -0.90128,-3.46988 c -4.34984,-16.75127 -7.37543,-37.27195 -3.72968,-42.75028 0.54406,-0.81485 1.0613,-0.98485 1.74029,-1.0518 6.44301,0 16.72813,24.31912 23.12616,47.17771 l 0.4861,1.72305 15.96179,1.43323 -0.9428,-3.58704 c -3.56705,-13.47432 -7.72661,-37.12924 -3.66048,-43.27619 0.57348,-0.85184 1.09677,-1.01393 1.7524,-1.08087 z m 129.69674,-104.63327 -0.68591,-7.11878 20.69197,-19.5874 c 4.20858,-3.98199 2.63592,-11.99595 -2.7453,-14.03153 l -26.45166,-10.03852 -2.07133,-6.92958 16.49998,-23.25793 c 3.36476,-4.72728 0.27288,-12.2742 -5.39226,-13.21965 l -27.89265,-4.60483 -3.35365,-6.35675 11.72145,-26.11113 c 2.40027,-5.3167 -2.06083,-12.11849 -7.82517,-11.89587 l -28.3093,1.00052 -4.47156,-5.50591 6.5046,-27.985395 c 1.31524,-5.683727 -4.36758,-11.456578 -9.96801,-10.121838 l -27.56943,6.595988 -5.43613,-4.538154 0.99213,-28.730603 c 0.21921,-5.817186 -6.48813,-10.361006 -11.71589,-7.947328 l -25.72279,11.901578 -6.26354,-3.409206 -4.54829,-28.313313 c -0.9216,-5.739426 -8.36239,-8.876206 -13.0202,-5.472475 l -22.93339,16.745559 -6.81698,-2.097785 -9.89136,-26.850772 C 352.68342,5.1588572 344.7808,3.5848766 340.86797,7.8338201 L 321.56777,28.85055 314.55343,28.154816 299.64821,3.7122793 c -3.01386,-4.9497062 -11.0858,-4.9497062 -14.08894,0 L 270.65406,28.154816 263.63435,28.85055 244.32858,7.8338201 C 240.41596,3.5848766 232.51394,5.1588572 230.50827,10.631316 l -9.89118,26.850772 -6.82257,2.097785 -22.92799,-16.745559 c -4.6578,-3.41488 -12.10502,-0.266839 -13.02564,5.472475 l -4.54845,28.313313 -6.26334,3.409206 -25.7228,-11.901578 c -5.22778,-2.424828 -11.93518,2.130142 -11.71605,7.947328 l 0.98586,28.730603 -5.43593,4.538154 -27.56963,-6.595988 c -5.600379,-1.324236 -11.288572,4.438111 -9.973391,10.121838 l 6.493659,27.985395 -4.460628,5.50572 -28.309246,-1.00056 c -5.709941,-0.16819 -10.209081,6.57918 -7.830791,11.89591 l 11.727035,26.1111 -3.359189,6.35675 -27.892733,4.60505 c -5.666245,0.93328 -8.734855,8.49218 -5.392224,13.21943 l 16.499982,23.25815 -2.071352,6.92958 -26.457017,10.03837 c -5.370271,2.03463 -6.9428949,10.04946 -2.745306,14.03168 l 20.697577,19.5874 -0.685531,7.11856 -24.0787196,15.12729 c -4.877136,3.05873 -4.877136,11.25074 0,14.29845 l 24.0787196,15.12718 0.685531,7.11881 -20.697577,19.59307 c -4.1975889,3.97081 -2.624965,11.97933 2.745306,14.02575 l 26.457017,10.03862 2.071352,6.92957 -16.499982,23.26364 c -3.353603,4.73839 -0.269293,12.29084 5.397817,13.21398 l 27.88714,4.60502 3.359189,6.36767 -11.727035,26.09998 c -2.389055,5.30578 2.12085,12.12968 7.830791,11.89614 l 28.298266,-1.0069 4.471608,5.51689 -6.493659,27.99089 c -1.315181,5.67277 4.373012,11.43428 9.973391,10.09954 l 27.56943,-6.59036 5.43613,4.52704 -0.98586,28.73628 c -0.21952,5.81718 6.48807,10.36645 11.71605,7.94165 l 25.72259,-11.89595 6.26355,3.40921 4.54824,28.29672 c 0.91959,5.76174 8.36785,8.87603 13.02585,5.48368 l 22.91702,-16.75673 6.82796,2.10765 9.89118,26.8396 c 2.0048,5.45027 9.90769,7.05763 13.82031,2.78646 l 19.30579,-21.00563 7.01972,0.71285 14.90517,24.43707 c 3.00317,4.92741 11.07504,4.93856 14.08898,0 l 14.90521,-24.43707 7.01431,-0.71285 19.30023,21.00563 c 3.91276,4.27117 11.81485,2.66381 13.8203,-2.78646 l 9.8914,-26.8396 6.82791,-2.10765 22.92238,16.75673 c 4.65782,3.39235 12.09963,0.26684 13.02025,-5.48368 l 4.54824,-28.29672 6.26359,-3.40921 25.72282,11.89595 c 5.22776,2.4248 11.92415,-2.11332 11.71582,-7.94165 l -0.98586,-28.73628 5.43077,-4.52704 27.56946,6.59036 c 5.60032,1.33474 11.28291,-4.42677 9.96779,-10.09954 l -6.49376,-27.99089 4.46071,-5.51689 28.30919,1.0069 c 5.71015,0.2332 10.22544,-6.59036 7.82525,-11.89614 l -11.72152,-26.09998 3.35387,-6.36767 27.89276,-4.60502 c 5.67697,-0.92273 8.7568,-8.47559 5.39214,-13.21398 l -16.50013,-23.26364 2.07152,-6.92957 26.45145,-10.03862 c 5.38125,-2.04725 6.9541,-10.05494 2.74552,-14.02575 l -20.6922,-19.59307 0.68587,-7.11881 24.07877,-15.12718 c 4.8771,-3.04771 4.88251,-11.23972 0.004,-14.29845 z M 253.69385,79.751871 279.92079,107.67592 c 5.9292,6.30131 15.74917,6.53481 21.95239,0.51081 l 29.34487,-28.485697 c 60.54459,11.509416 113.04045,49.453837 143.5517,103.760207 l -20.08951,46.04891 c -3.46873,7.96963 0.0654,17.29055 7.90202,20.82206 l 38.67779,17.4361 c -0.32315,65.24458 -15.52989,120.70382 -59.13903,170.2916 l -36.0195,-7.85782 c -8.38961,-1.8245 -16.64247,3.59266 -18.43982,12.12401 l -8.54865,40.48724 c -55.63064,25.5741 -119.48292,25.26327 -174.86925,-0.85126 l -8.54307,-40.48736 c -1.79775,-8.52008 -10.05022,-13.9482 -18.43443,-12.11845 l -35.21941,7.67493 C 102.85125,392.00395 79.84107,317.48089 84.096867,266.04912 l 36.688063,-16.54549 c 7.83617,-3.53152 11.37618,-12.85247 7.89645,-20.8221 L 106.1246,184.84088 C 137.15248,135.57805 194.96508,92.979223 253.69385,79.751871 Z M 400.83543,469.39919 c 0,-23.04669 34.06311,-23.04669 34.06311,0 0,23.04669 -34.06311,23.04669 -34.06311,0 m -252.35515,-0.80708 c 0,-23.04669 34.0631,-23.04669 34.0631,0 0,23.04669 -34.0631,23.04669 -34.0631,0 M 477.83359,225.82309 c 0,-23.04669 34.06311,-23.04669 34.06311,0 0,23.04667 -34.06311,23.04667 -34.06311,0 M 71.482145,225.0159 c 0,-23.04666 34.063085,-23.04666 34.063085,0 0,23.04667 -34.063085,23.04667 -34.063085,0 M 274.6607,68.516205 c 0,-23.046694 34.0631,-23.046694 34.0631,0 0,23.046725 -34.0631,23.046725 -34.0631,0"
           inkscape:connector-curvature="0" />
      </g>
    </g>
  </g>
</svg>
