<?xml version="1.0" encoding="UTF-8" standalone="no"?>
<!-- Created with Inkscape (http://www.inkscape.org/) -->

<svg
   xmlns:dc="http://purl.org/dc/elements/1.1/"
   xmlns:cc="http://creativecommons.org/ns#"
   xmlns:rdf="http://www.w3.org/1999/02/22-rdf-syntax-ns#"
   xmlns:svg="http://www.w3.org/2000/svg"
   xmlns="http://www.w3.org/2000/svg"
   xmlns:sodipodi="http://sodipodi.sourceforge.net/DTD/sodipodi-0.dtd"
   xmlns:inkscape="http://www.inkscape.org/namespaces/inkscape"
   width="151.61212mm"
   height="153.86766mm"
   viewBox="0 0 151.61212 153.86766"
   version="1.1"
   id="svg8"
   sodipodi:docname="rust-roma.svg"
   inkscape:version="0.92.1 r15371">
  <defs
     id="defs2" />
  <sodipodi:namedview
     id="base"
     pagecolor="#ffffff"
     bordercolor="#666666"
     borderopacity="1.0"
     inkscape:pageopacity="0.0"
     inkscape:pageshadow="2"
     inkscape:zoom="1"
     inkscape:cx="80.011099"
     inkscape:cy="102.41332"
     inkscape:document-units="in"
     inkscape:current-layer="layer1"
     showgrid="false"
     inkscape:window-width="1920"
     inkscape:window-height="989"
     inkscape:window-x="0"
     inkscape:window-y="27"
     inkscape:window-maximized="1"
     units="mm"
     fit-margin-top="0"
     fit-margin-left="0"
     fit-margin-right="0"
     fit-margin-bottom="0" />
  <metadata
     id="metadata5">
    <rdf:RDF>
      <cc:Work
         rdf:about="">
        <dc:format>image/svg+xml</dc:format>
        <dc:type
           rdf:resource="http://purl.org/dc/dcmitype/StillImage" />
        <dc:title></dc:title>
      </cc:Work>
    </rdf:RDF>
  </metadata>
  <g
     inkscape:label="Layer 1"
     inkscape:groupmode="layer"
     id="layer1"
     transform="translate(-18.608514,-40.176149)">
    <g
       id="g5614"
       transform="matrix(0.20272745,0,0,0.21086347,56.549753,92.335262)"
       style="fill:none;fill-opacity:1;stroke:#000000;stroke-opacity:1">
      <g
         id="g5551"
         style="fill:none;fill-opacity:1;stroke:#000000;stroke-opacity:1">
        <g
           id="g5549"
           style="fill:none;fill-opacity:1;stroke:#000000;stroke-opacity:1">
          <g
             id="g5622"
             style="fill:none;fill-opacity:1;stroke:#000000;stroke-opacity:1">
            <path
               id="path4603"
               style="fill:#000000;fill-opacity:1;stroke:none;stroke-width:1.00909233;stroke-opacity:1"
               d="m 436.28196,297.29339 -2.22726,-0.34154 C 370.1521,287.23273 305.73698,281.79342 242.59749,280.80968 l -5.98974,-0.10168 55.4384,90.21106 h 17.87891 l -1.07241,-4.06649 c -13.52393,-23.09311 -34.64847,-59.24486 -22.42273,-69.80142 0.98838,-0.74694 1.89954,-1.33752 2.70328,-1.25027 18.45727,2.00365 23.55079,44.13321 24.86526,48.62973 l 20.65892,-28.74288 9.4001,1.7745 c 9.19212,-7.4641 8.87624,-0.59683 18.02574,-15.32332 0,0 3.05081,-3.89789 5.17516,-0.90786 2.06641,1.87908 13.2075,40.99589 20.53894,68.06911 l 0.65589,1.62 h 19.10937 l -0.88165,-3.94711 c -5.16679,-23.21955 -8.09845,-49.77829 -2.99487,-56.82584 0.74619,-1.01801 1.42124,-1.22139 2.23403,-1.29765 7.23374,0 19.40287,23.52462 29.59536,57.20718 l 1.24853,4.14165 3.72298,-2.31234 c 6.64561,-4.14165 9.60436,-11.75181 7.68981,-19.87926 z M 222.53207,280.65502 c -93.81463,-0.36489 -168.594771,8.97586 -217.1676218,17.52611 8.5790908,3.11054 1.2219129,16.68488 13.4141128,15.84673 3.425936,-0.23552 5.045454,-3.92977 5.040064,1.16399 0.108111,0.0772 24.848063,3.28304 24.9679,3.39155 5.935566,5.39065 -5.805001,41.03992 -21.046361,48.94908 l -0.132375,3.37791 h 26.430176 l -0.250342,-3.47272 c -1.929225,-27.54249 0.928811,-52.98993 5.999655,-53.38011 h 0.103578 c 0,0 8.260954,19.81173 8.991024,53.4945 l 6.070006,3.36917 h 26.248884 l -0.39134,-3.60275 c -2.145967,-19.50013 -3.464261,-51.76263 2.76819,-58.72618 h 0.0749 c 4.51317,0 13.38426,23.1426 19.49817,59.59844 l 1.61398,12.27656 h 27.41963 l -2.72429,-13.16507 c -1.84342,-15.56519 -4.97942,-51.56721 4.73331,-62.24131 1.25076,-1.37393 2.57289,-2.01537 4.14653,-2.01537 10.2986,0 25.53378,50.95522 33.8038,80.50938 l 7.28408,-0.86141 15.60775,0.86141 c 0.0949,0.35923 0.16631,0.66753 0.25324,1.02122 0,0 9.72599,10.76966 6.43705,-1.64424 -1.64447,-6.20695 -5.78021,-18.30422 -6.74471,-23.92574 -1.32212,-7.70585 -10.38739,-36.77696 -7.02613,-48.4831 1.16872,-4.07025 2.95491,-5.17417 6.09545,-5.30407 8.76226,-0.36243 43.13313,69.79103 43.13313,69.79103 l 21.02602,-4.07797 -53.7869,-90.25536 z m -238.154796,21.69172 c -7.873321,1.65344 -21.796497,4.43601 -27.015878,5.69722 l -2.526485,0.6095 v 39.57323 c 0,12.50895 10.398496,22.6837 23.167041,22.6837 h 7.231245 l -0.267611,-3.48898 c 1.205968,-28.98552 2.200746,-39.35773 -0.588312,-65.07467 z m -19.02488,-80.53265 -0.669415,1.28881 c -0.364622,0.6875 -0.729245,1.3916 -1.074678,1.94979 -4.927481,7.71075 -8.782544,22.68347 -8.782544,34.11584 v 42.84239 l 4.101155,-0.96606 c 5.85202,-1.36397 21.047631,-4.6103 21.061176,-4.6103 l 2.791677,-0.59357 -0.186264,-2.79537 c -1.332056,-20.04837 0.46622,-39.72315 3.231932,-41.33582 2.612185,1.59499 5.6127007,16.44281 6.0868226,38.52498 l 0.093692,3.83106 3.8494189,-0.71403 c 5.03698208,-0.92959 14.5103915,-2.58205 14.5103915,-2.58205 l 3.100981,-0.53498 -0.389455,-3.06948 c -1.908907,-15.04679 -2.881985,-41.45188 2.631377,-48.29937 0.796976,-0.98373 1.455101,-1.16943 2.098553,-1.22691 0.379298,0 0.905347,0.094 1.649268,0.85442 5.76284,5.86484 7.033938,31.23315 6.487569,45.84665 l -0.149011,3.89737 27.089298,-3.81337 -0.229159,-3.04406 c -2.258853,-29.38063 0.294632,-56.49314 5.435471,-56.90101 5.066331,0 12.153327,25.84581 14.859208,54.22944 l 0.311565,3.26402 26.213308,-2.6174 -0.37366,-3.27397 c -2.147095,-18.89663 -3.5085,-51.24838 1.983409,-57.67142 0.18514,-0.22218 0.47075,-0.50956 0.75522,-0.52835 5.21195,0 14.41105,26.54216 19.6817,56.77721 l 0.50685,2.87938 23.88107,-1.47562 -0.35558,-3.38008 c -1.32755,-12.51338 -2.75669,-47.17415 6.40855,-57.12317 1.5059,-1.62593 3.11903,-2.3875 5.09908,-2.3875 10.30312,0 24.72432,34.45296 31.66005,58.90827 l 0.69425,2.40961 2.56025,-0.0353 c 0,0 15.71038,-0.20337 24.08653,-0.22106 h 5.23001 l -38.5495,-80.51295 -2.18321,0.0641 C 70.972091,196.79175 -5.4462116,214.12987 -33.218471,221.44159 Z m 6.029251,-27.44079 c 0,4.27429 -0.67393,9.55443 -1.886328,14.81687 l -1.207883,5.16961 5.250338,-1.28881 c 5.464819,-1.33744 18.1295208,-4.18587 18.1374226,-4.18587 l 2.8097369,-0.62118 -0.2393184,-2.81306 c -1.9405135,-23.07696 0.2393184,-41.80447 3.146138,-42.55168 3.19806598,1.63257 6.2403478,20.10585 6.4966002,39.53636 l 0.051932,3.87084 21.9157247,-4.04769 -0.371396,-3.03412 c -1.354634,-11.10078 -3.43174,-41.71274 3.180003,-49.87667 0.939215,-1.1628 1.739578,-1.37281 2.544455,-1.44134 0.432355,0 1.108543,0.10169 1.985668,1.00143 6.061989,6.17654 7.355664,32.16494 6.740435,47.10561 l -0.158041,3.91507 27.895306,-3.97807 -0.212226,-3.0098 c -2.167415,-31.00214 0.834229,-58.58884 6.534981,-59.04092 5.591253,0 13.080114,26.23378 16.009512,56.13281 l 0.321726,3.23749 24.815769,-2.35212 -0.45493,-3.33809 c -2.82553,-21.14153 -4.75024,-57.71673 2.14598,-65.94919 0.84776,-1.0169 1.54991,-1.17385 2.14144,-1.20701 7.2518,0 17.14064,27.61101 23.52097,65.64302 l 0.48654,2.89042 2.99035,-0.1658 c 9.30971,-0.52061 18.82152,-0.97932 28.68325,-1.29986 l 5.03247,-0.17465 -44.43088,-95.473511 -2.46769,0.339335 C 44.338864,104.32803 -8.5302527,134.09442 -27.150828,146.31821 l -1.469779,0.96163 V 194.3733 Z M 131.24428,85.881268 134.42429,85.444665 128.97076,35.216506 C 127.62516,22.857872 116.40653,12.409239 103.64362,12.409239 h -0.0248 C 51.402158,14.441931 8.342851,42.990255 -12.668656,59.833189 -21.457974,66.869685 -28.619473,82.538767 -28.619473,94.775816 V 139.3845 l 5.066332,-3.08938 C -0.349386,122.22103 50.624372,96.962145 131.2443,85.881268 Z M 374.96556,132.00868 H 174.05524 l 22.62352,55.04737 2.28934,-0.0353 c 6.39501,-0.10169 12.90853,-0.15032 19.509,-0.15032 62.97694,0 127.1245,4.92532 190.64896,14.65771 l 4.84393,0.7483 -11.476,-48.79677 c -2.77023,-11.848 -15.10981,-21.47095 -27.52843,-21.47095 z m -19.72347,88.84046 c 8.34228,0 21.7543,31.46306 30.14175,61.06034 l 0.59716,2.08686 2.19789,0.26085 c 15.35478,1.82379 28.97562,3.61773 41.67757,5.51888 l 4.83153,0.70962 -19.1184,-81.37952 -2.20692,-0.34155 c -65.06195,-10.25409 -130.63528,-15.44359 -194.91381,-15.44359 -4.8191,0 -9.57726,0.0243 -14.29138,0.0884 l -4.85864,0.0597 33.22355,80.83018 2.21709,0.0177 c 5.80008,0.0708 11.69839,0.1868 17.62942,0.32386 l 4.36983,0.10169 -1.07243,-4.1505 c -5.59124,-21.62899 -8.56805,-47.04151 -2.66861,-55.04074 1.10742,-1.49661 2.44285,-2.25486 4.7096,-2.39635 12.85211,0 23.94428,36.8261 27.92016,60.02908 l 0.43008,2.57762 2.66412,0.14148 c 0,0 11.47715,0.6024 17.76039,0.99258 l 4.60463,0.2697 -1.17628,-4.35387 c -5.67706,-21.01885 -9.62581,-46.7674 -4.86767,-53.6414 0.71006,-1.02244 1.38511,-1.23576 2.27128,-1.31976 8.40889,0 21.83219,30.51469 30.18238,59.19676 l 0.63442,2.16202 20.83202,1.79836 -1.23047,-4.50088 c -4.65542,-16.90705 -10.08413,-46.58833 -4.77735,-54.30129 0.74845,-1.06885 1.43141,-1.27223 2.28709,-1.35623 z M 524.51169,89.559363 523.6165,80.626995 550.62197,56.049481 c 5.49269,-4.996456 3.44018,-15.052062 -3.58294,-17.606227 l -34.52256,-12.595951 -2.70333,-8.694963 21.53443,-29.183148 c 4.39141,-5.931611 0.35614,-15.401198 -7.03753,-16.587511 l -36.40321,-5.777956 -4.37691,-7.976204 15.29788,-32.763238 c 3.13263,-6.671189 -2.68963,-15.205811 -10.21278,-14.926483 l -36.94699,1.25541 -5.83592,-6.908594 8.48928,-35.114996 c 1.71654,-7.13172 -5.70021,-14.37527 -13.00944,-12.70049 l -35.98136,8.27639 -7.0948,-5.6943 1.29485,-36.05005 c 0.28609,-7.29918 -8.46778,-13.00059 -15.29063,-9.972 l -33.57128,14.93364 -8.17467,-4.27774 -5.93605,-35.52645 c -1.2028,-7.20161 -10.91391,-11.13752 -16.99291,-6.86665 l -29.93078,21.01168 -8.89697,-2.63222 -12.9094,-33.69131 c -2.61662,-6.86663 -12.93047,-8.8416 -18.03717,-3.51019 l -25.18905,26.37098 -9.15455,-0.87298 -19.45307,-30.66955 c -3.93345,-6.2107 -14.46829,-6.2107 -18.38774,0 l -19.45306,30.66955 -9.16156,0.87298 -25.19631,-26.37098 c -5.10644,-5.33141 -15.41951,-3.35644 -18.03715,3.51019 l -12.909157,33.69131 -8.90426,2.63222 -29.923743,-21.01168 c -6.078979,-4.28486 -15.798482,-0.33482 -17.000006,6.86665 l -5.936256,35.52645 -8.174409,4.27774 -33.571295,-14.93364 c -6.822869,-3.04258 -15.576829,2.67282 -15.29084,9.972 l 1.286674,36.05005 -7.094535,5.6943 -35.981635,-8.27639 c -7.309158,-1.6616 -14.732923,5.56877 -13.016456,12.70049 l 8.474994,35.114996 -5.821648,6.908356 -36.946918,-1.255457 c -7.45215,-0.211037 -13.32406,8.255295 -10.22011,14.926531 l 15.30517,32.76319 -4.38414,7.976204 -36.40332,5.778241 c -7.39512,1.171042 -11.40002,10.655663 -7.03749,16.587226 l 21.53443,29.183433 -2.70336,8.694963 -34.52954,12.595762 c -7.00884,2.552979 -9.0613,12.609675 -3.58295,17.606416 l 27.01279,24.577514 -0.8947,8.932083 -31.42558,18.981142 c -6.36524,3.83798 -6.36524,14.117 0,17.94114 l 31.42558,18.981 0.8947,8.93241 -27.01279,24.58463 c -5.47835,4.98242 -3.42589,15.0312 3.58295,17.59897 l 34.52954,12.59607 2.70336,8.69496 -21.53443,29.19031 c -4.37685,5.94555 -0.35146,15.42207 7.04479,16.5804 l 36.39602,5.77819 4.38414,7.98991 -15.30517,32.74925 c -3.118,6.65748 2.76796,15.21985 10.22011,14.92681 l 36.932588,-1.26342 5.835978,6.92239 -8.474994,35.12188 c -1.716467,7.11797 5.707298,14.34729 13.016456,12.67251 l 35.981368,-8.26933 7.094802,5.68036 -1.286674,36.05717 c -0.286493,7.29917 8.467699,13.00742 15.29084,9.96488 l 33.571019,-14.92658 8.174685,4.27775 5.935984,35.50562 c 1.200178,7.22961 10.921033,11.13731 17.000278,6.88071 l 29.909423,-21.02569 8.911304,2.6446 12.909153,33.67729 c 2.61651,6.83879 12.93071,8.85564 18.03715,3.49634 l 25.19634,-26.35705 9.16156,0.89446 19.45301,30.66269 c 3.9195,6.18272 14.45424,6.19671 18.38779,0 l 19.45307,-30.66269 9.1545,-0.89446 25.18909,26.35705 c 5.10661,5.3593 15.41977,3.34245 18.03713,-3.49634 l 12.90945,-33.67729 8.91122,-2.6446 29.91643,21.02569 c 6.079,4.2566 15.79144,0.33482 16.99296,-6.88071 l 5.936,-35.50562 8.17472,-4.27775 33.57133,14.92658 c 6.82285,3.04254 15.56242,-2.65172 15.29053,-9.96488 l -1.28666,-36.05717 7.08779,-5.68036 35.98142,8.26933 c 7.30907,1.67478 14.72553,-5.55454 13.00914,-12.67251 l -8.47512,-35.12188 5.82175,-6.92239 36.94685,1.26342 c 7.45242,0.29261 13.3454,-8.26933 10.21287,-14.92681 l -15.29797,-32.74925 4.3772,-7.98991 36.40336,-5.77819 c 7.40911,-1.15781 11.42865,-10.63485 7.03738,-16.5804 l -21.53463,-29.19031 2.70358,-8.69496 34.52227,-12.59607 c 7.02317,-2.56881 9.07593,-12.61655 3.58323,-17.59897 l -27.00577,-24.58463 0.89515,-8.93241 31.42564,-18.981 c 6.36519,-3.82414 6.37225,-14.10316 0.005,-17.94114 z m -388.49346,-236.849443 34.22925,35.03802 c 7.73832,7.90664 20.55454,8.19962 28.65048,0.64094 l 38.29852,-35.74275 c 79.01786,14.44157 147.53118,62.05276 187.35198,130.194293 l -26.21919,57.780401 c -4.52711,9.999978 0.0853,21.695508 10.31306,26.126716 l 50.4791,21.878138 C 458.69968,170.49206 438.85309,240.08017 381.938,302.301 l -47.00972,-9.8597 c -10.94943,-2.2893 -21.72039,4.50794 -24.06615,15.21274 l -11.157,50.80183 C 227.10056,390.54526 143.76577,390.15524 71.480049,357.38774 L 60.33034,306.58576 C 57.984062,295.8951 47.213601,289.08411 36.271215,291.38 l -45.9654967,9.63021 C -60.849229,244.51176 -90.880243,151.0031 -85.325924,86.4685 L -37.443656,65.707863 C -27.216521,61.276655 -22.596397,49.581077 -27.137854,39.5811 L -56.577129,-15.428452 C -16.08206,-77.241544 59.370223,-130.69291 136.01823,-147.29008 Z m 192.03718,488.91439 c 0,-28.91809 44.45639,-28.91809 44.45639,0 0,28.9181 -44.45639,28.9181 -44.45639,0 M -1.2979397,340.61162 c 0,-28.9181 44.4563677,-28.9181 44.4563677,0 0,28.9181 -44.4563677,28.9181 -44.4563677,0 M 428.54713,35.994438 c 0,-28.9180961 44.45639,-28.9180961 44.45639,0 0,28.918076 -44.45639,28.918076 -44.45639,0 m -530.33676,-1.012836 c 0,-28.9180482 44.456363,-28.9180482 44.456363,0 0,28.918077 -44.456363,28.918077 -44.456363,0 M 163.38245,-161.38816 c 0,-28.9181 44.45638,-28.9181 44.45638,0 0,28.91814 -44.45638,28.91814 -44.45638,0"
               inkscape:connector-curvature="0"
               sodipodi:nodetypes="ccccccccsccccccccccccccccccccccccccccccccscccccsccccsssscccccccssccccccscccccccccccccccccccccccccccccccscccccccccccccccccccccccccccccccccccccccccccccccccsccsccccccccscccccccccccccsccccccccccccccccccccccccccccccccccccccccccccccccccccccccccccccccccccccccccccccccccccccccccccccccccccccccccccccccccccccccccccccccccccccccccccccccccccccccccccccccccccccccccccccsccsccsccsccsc" />
          </g>
        </g>
      </g>
      <g
         id="g5553"
         style="fill:none;fill-opacity:1;stroke:#000000;stroke-opacity:1" />
      <g
         id="g5555"
         style="fill:none;fill-opacity:1;stroke:#000000;stroke-opacity:1" />
      <g
         id="g5557"
         style="fill:none;fill-opacity:1;stroke:#000000;stroke-opacity:1" />
      <g
         id="g5559"
         style="fill:none;fill-opacity:1;stroke:#000000;stroke-opacity:1" />
      <g
         id="g5561"
         style="fill:none;fill-opacity:1;stroke:#000000;stroke-opacity:1" />
      <g
         id="g5563"
         style="fill:none;fill-opacity:1;stroke:#000000;stroke-opacity:1" />
      <g
         id="g5565"
         style="fill:none;fill-opacity:1;stroke:#000000;stroke-opacity:1" />
      <g
         id="g5567"
         style="fill:none;fill-opacity:1;stroke:#000000;stroke-opacity:1" />
      <g
         id="g5569"
         style="fill:none;fill-opacity:1;stroke:#000000;stroke-opacity:1" />
      <g
         id="g5571"
         style="fill:none;fill-opacity:1;stroke:#000000;stroke-opacity:1" />
      <g
         id="g5573"
         style="fill:none;fill-opacity:1;stroke:#000000;stroke-opacity:1" />
      <g
         id="g5575"
         style="fill:none;fill-opacity:1;stroke:#000000;stroke-opacity:1" />
      <g
         id="g5577"
         style="fill:none;fill-opacity:1;stroke:#000000;stroke-opacity:1" />
      <g
         id="g5579"
         style="fill:none;fill-opacity:1;stroke:#000000;stroke-opacity:1" />
      <g
         id="g5581"
         style="fill:none;fill-opacity:1;stroke:#000000;stroke-opacity:1" />
    </g>
  </g>
</svg>
