<?xml version="1.0" encoding="UTF-8" standalone="no"?>
<svg
   xmlns:dc="http://purl.org/dc/elements/1.1/"
   xmlns:cc="http://creativecommons.org/ns#"
   xmlns:rdf="http://www.w3.org/1999/02/22-rdf-syntax-ns#"
   xmlns:svg="http://www.w3.org/2000/svg"
   xmlns="http://www.w3.org/2000/svg"
   id="svg8"
   version="1.1"
   viewBox="0 0 151.61212 153.86766"
   height="153.86766mm"
   width="151.61212mm">
  <defs
     id="defs2" />
  <metadata
     id="metadata5">
    <rdf:RDF>
      <cc:Work
         rdf:about="">
        <dc:format>image/svg+xml</dc:format>
        <dc:type
           rdf:resource="http://purl.org/dc/dcmitype/StillImage" />
        <dc:title></dc:title>
      </cc:Work>
    </rdf:RDF>
  </metadata>
  <g
     transform="translate(-18.608514,-40.176149)"
     id="layer1">
    <g
       style="fill:none;fill-opacity:1;stroke:#000000;stroke-opacity:1"
       transform="matrix(0.20272745,0,0,0.21086347,56.549753,92.335262)"
       id="g5614">
      <g
         style="fill:none;fill-opacity:1;stroke:#000000;stroke-opacity:1"
         id="g5551">
        <g
           style="fill:none;fill-opacity:1;stroke:#000000;stroke-opacity:1"
           id="g5549">
          <g
             style="fill:none;fill-opacity:1;stroke:#000000;stroke-opacity:1"
             id="g5622">
            <path
               style="fill:#000000;fill-opacity:1;stroke:none;stroke-opacity:1"
               d="m 411.26984,319.6545 -1.973,-0.309 c -56.608,-8.793 -113.67,-13.714 -169.602,-14.604 l -5.306,-0.092 49.11,81.615 h 15.838 l -0.95,-3.679 c -5.963,-23.163 -9.514,-49.94 -4.031,-57.575 0.85,-1.19 1.823,-1.771 3.494,-1.879 10.127,0 20.378,31.47 25.624,60.708 l 0.429,2.425 h 21.816 l -2.71729,-22.75878 c -19.05794,-7.33594 -19.92893,-23.73433 -12.34152,-35.32651 12.42917,-18.9895 37.50939,-9.62693 37.60745,-3.14339 19.75142,2.35978 8.39692,29.24384 -5.57486,35.45567 0,0 3.33191,15.04106 5.62722,23.60601 l 0.581,2.168 h 16.928 l -0.781,-3.571 c -4.577,-21.007 -7.174,-45.035 -2.653,-51.411 0.661,-0.921 1.259,-1.105 1.979,-1.174 6.408,0 17.188,21.283 26.217,51.756 l 1.106,3.747 3.298,-2.092 c 5.887,-3.747 8.508,-10.632 6.812,-17.985 z m -189.3499,-15.05292 c -83.1055,-0.33012 -149.34934,8.12056 -192.377501,15.85607 7.59977,2.81414 13.61707,9.5227 13.61707,20.1546 0,0.21263 -0.01052,0.41789 -0.0153,0.62738 0.09577,0.0699 0.189529,0.13221 0.295688,0.23038 5.258009,4.87699 6.419016,28.18962 5.924024,41.73061 l -0.117265,3.05604 h 23.413119 l -0.221766,-3.14181 c -1.709,-24.91801 0.822786,-47.94061 5.314782,-48.29361 h 0.09176 c 3.961008,0 10.115124,19.46046 13.074128,48.79845 l 0.267653,2.64677 h 23.252518 l -0.34667,-3.25945 c -1.901,-17.64199 -3.06881,-47.83363 2.4522,-54.13364 h 0.0663 c 3.99799,0 11.85643,21.94077 17.27242,54.92278 l 0.40785,2.47766 h 23.27801 l -0.3798,-3.2815 c -1.633,-14.082 -3.97747,-52.75513 4.62654,-62.41212 1.10799,-1.24301 2.27919,-1.82333 3.67319,-1.82333 9.123,0 23.55841,37.65675 30.8844,64.39475 l 2.83965,-0.77933 13.8261,0.77933 c 0.084,0.325 0.14732,0.60392 0.22432,0.92391 l 5.70225,-1.48757 c -5.827,-22.462 -10.29872,-48.64986 -8.09072,-53.65085 5.814,2.71299 24.44491,30.54393 39.0159,55.85893 l 0.84629,1.48023 H 271.2417 L 223.59467,304.62119 Z M 4.5922424,325.36152 c -6.9745658,1.49589 -12.9496327,2.87812 -17.5732104,4.01915 l -2.238082,0.55141 v 35.80237 c 0,11.31699 9.2114862,20.52221 20.5224775,20.52221 H 11.70921 l -0.237062,-3.15652 c -0.685474,-9.35914 -0.638242,-16.95622 -0.247255,-22.7695 -7.0755034,-3.03804 -12.5235244,-9.60113 -12.5235244,-19.71839 0,-6.5914 2.324442,-11.66413 5.8908738,-15.25073 z m 31.9881516,31.16317 c -4.98935,4.55474 -12.103903,6.40101 -18.835012,5.55331 0.813324,6.15868 1.378949,13.60989 1.475906,21.27456 l 0.03824,2.9041 h 18.554608 l -0.397657,-3.3011 c -0.86682,-7.25679 -1.42853,-17.71033 -0.836085,-26.43087 z M -5.9021586,251.3675 l -0.593,1.166 c -0.323,0.622 -0.646,1.259 -0.952,1.764 -4.3650004,6.976 -7.7800004,20.522 -7.7800004,30.865 v 38.76 l 3.633,-0.874 c 5.1840004,-1.234 18.6450004,-4.171 18.6570004,-4.171 l 2.473,-0.537 -0.165,-2.529 c -1.18,-18.138 0.413,-35.938 2.8629996,-37.397 2.314,1.443 4.972,14.876 5.392,34.854 l 0.083,3.466 3.41,-0.646 c 4.462,-0.841 12.854,-2.336 12.854,-2.336 l 2.747,-0.484 -0.345,-2.777 c -1.691,-13.613 -2.553,-37.502 2.331,-43.697 0.706,-0.89 1.289,-1.058 1.859,-1.11 0.336,0 0.802,0.085 1.461,0.773 5.105,5.306 6.231,28.257 5.747,41.478 l -0.132,3.526 23.997,-3.45 -0.203,-2.754 c -2.001,-26.581 0.261,-51.11 4.815,-51.479 4.488,0 10.766,23.383 13.163,49.062 l 0.276,2.953 23.220999,-2.368 -0.331,-2.962 c -1.902,-17.096 -3.108,-46.365 1.757,-52.176 0.164,-0.201 0.417,-0.461 0.669,-0.478 4.617,0 12.766,24.013 17.435,51.367 l 0.449,2.605 21.155,-1.335 -0.315,-3.058 c -1.176,-11.321 -2.442,-42.679 5.677,-51.68 1.334,-1.471 2.763,-2.16 4.517,-2.16 9.127,0 21.902,31.17 28.046,53.295 l 0.615,2.18 2.268,-0.032 c 0,0 13.917,-0.184 21.337,-0.2 h 4.633 l -34.149,-72.841 -1.934,0.058 c -97.077999,2.721 -164.772999,18.407 -189.3749986,25.022 z m 5.34100001,-24.826 c 0,3.867 -0.59700001,8.644 -1.67100001,13.405 l -1.07,4.677 4.651,-1.166 c 4.841,-1.21 16.0599996,-3.787 16.0669996,-3.787 l 2.489,-0.562 -0.212,-2.545 c -1.719,-20.878 0.212,-37.821 2.787,-38.497 2.833,1.477 5.528,18.19 5.755,35.769 l 0.046,3.502 19.414,-3.662 -0.329,-2.745 c -1.2,-10.043 -3.04,-37.738 2.817,-45.124 0.832,-1.052 1.541,-1.242 2.254,-1.304 0.383,0 0.982,0.092 1.759,0.906 5.37,5.588 6.516,29.1 5.971,42.617 l -0.14,3.542 24.711,-3.599 -0.188,-2.723 c -1.92,-28.048 0.739,-53.006 5.789,-53.415 4.953,0 11.586999,23.734 14.181999,50.784 l 0.285,2.929 21.983,-2.128 -0.403,-3.02 c -2.503,-19.127 -4.208,-52.217 1.901,-59.665 0.751,-0.92 1.373,-1.062 1.897,-1.092 6.424,0 15.184,24.98 20.836,59.388 l 0.431,2.615 2.649,-0.15 c 8.247,-0.471 16.673,-0.886 25.409,-1.176 l 4.458,-0.158 -39.359,-86.376 -2.186,0.307 c -78.353999,10.988 -125.187999,37.918 -141.68299859,48.977 l -1.302,0.87 v 42.606 z m 141.61399859,-98.154 2.817,-0.395 -4.831,-45.441998 c -1.192,-11.181 -11.13,-20.634 -22.436,-20.634 h -0.022 c -46.255999,1.839 -84.399999,27.667 -103.012999,42.904998 -7.7859996,6.366 -14.12999959,20.542 -14.12999959,31.613 v 40.358 l 4.48799999,-2.795 c 20.5549996,-12.733 65.7099996,-35.585 137.1269986,-45.61 z m 215.9,41.732 h -177.976 l 20.041,49.802 2.028,-0.032 c 5.665,-0.092 11.435,-0.136 17.282,-0.136 55.788,0 112.613,4.456 168.886,13.261 l 4.291,0.677 -10.166,-44.147 c -2.454,-10.719 -13.385,-19.425 -24.386,-19.425 z m -17.472,80.375 c 7.39,0 19.271,28.465 26.701,55.242 l 0.529,1.888 1.947,0.236 c 13.602,1.65 25.668,3.273 36.92,4.993 l 4.28,0.642 -16.936,-73.625 -1.955,-0.309 c -57.635,-9.277 -115.723,-13.972 -172.664,-13.972 -4.269,0 -8.484,0.022 -12.66,0.08 l -4.304,0.054 29.431,73.128 1.964,0.016 c 5.138,0.064 10.363,0.169 15.617,0.293 l 3.871,0.092 -0.95,-3.755 c -4.953,-19.568 -7.59,-42.559 -2.364,-49.796 0.981,-1.354 2.164,-2.04 4.172,-2.168 11.385,0 21.211,33.317 24.733,54.309 l 0.381,2.332 2.36,0.128 c 0,0 10.167,0.545 15.733,0.898 l 4.079,0.244 -1.042,-3.939 c -5.029,-19.016 -8.527,-42.311 -4.312,-48.53 0.629,-0.925 1.227,-1.118 2.012,-1.194 7.449,0 19.34,27.607 26.737,53.556 l 0.562,1.956 18.454,1.627 -1.09,-4.072 c -4.124,-15.296 -8.933,-42.149 -4.232,-49.127 0.663,-0.967 1.268,-1.151 2.026,-1.227 z M 524.51169,89.559363 523.6165,80.626995 550.62197,56.049481 c 5.49269,-4.996456 3.44018,-15.052062 -3.58294,-17.606227 l -34.52256,-12.595951 -2.70333,-8.694963 21.53443,-29.183148 c 4.39141,-5.931611 0.35614,-15.401198 -7.03753,-16.587511 l -36.40321,-5.777956 -4.37691,-7.976204 15.29788,-32.763238 c 3.13263,-6.671189 -2.68963,-15.205811 -10.21278,-14.926483 l -36.94699,1.25541 -5.83592,-6.908594 8.48928,-35.114996 c 1.71654,-7.13172 -5.70021,-14.37527 -13.00944,-12.70049 l -35.98136,8.27639 -7.0948,-5.6943 1.29485,-36.05005 c 0.28609,-7.29918 -8.46778,-13.00059 -15.29063,-9.972 l -33.57128,14.93364 -8.17467,-4.27774 -5.93605,-35.52645 c -1.2028,-7.20161 -10.91391,-11.13752 -16.99291,-6.86665 l -29.93078,21.01168 -8.89697,-2.63222 -12.9094,-33.69131 c -2.61662,-6.86663 -12.93047,-8.8416 -18.03717,-3.51019 l -25.18905,26.37098 -9.15455,-0.87298 -19.45307,-30.66955 c -3.93345,-6.2107 -14.46829,-6.2107 -18.38774,0 l -19.45306,30.66955 -9.16156,0.87298 -25.19631,-26.37098 c -5.10644,-5.33141 -15.41951,-3.35644 -18.03715,3.51019 l -12.909157,33.69131 -8.90426,2.63222 -29.923743,-21.01168 c -6.078979,-4.28486 -15.798482,-0.33482 -17.000006,6.86665 l -5.936256,35.52645 -8.174409,4.27774 -33.571295,-14.93364 c -6.822869,-3.04258 -15.576829,2.67282 -15.29084,9.972 l 1.286674,36.05005 -7.094535,5.6943 -35.981635,-8.27639 c -7.309158,-1.6616 -14.732923,5.56877 -13.016456,12.70049 l 8.474994,35.114996 -5.821648,6.908356 -36.946918,-1.255457 c -7.45215,-0.211037 -13.32406,8.255295 -10.22011,14.926531 l 15.30517,32.76319 -4.38414,7.976204 -36.40332,5.778241 c -7.39512,1.171042 -11.40002,10.655663 -7.03749,16.587226 l 21.53443,29.183433 -2.70336,8.694963 -34.52954,12.595762 c -7.00884,2.552979 -9.0613,12.609675 -3.58295,17.606416 l 27.01279,24.577514 -0.8947,8.932083 -31.42558,18.981142 c -6.36524,3.83798 -6.36524,14.117 0,17.94114 l 31.42558,18.981 0.8947,8.93241 -27.01279,24.58463 c -5.47835,4.98242 -3.42589,15.0312 3.58295,17.59897 l 34.52954,12.59607 2.70336,8.69496 -21.53443,29.19031 c -4.37685,5.94555 -0.35146,15.42207 7.04479,16.5804 l 36.39602,5.77819 4.38414,7.98991 -15.30517,32.74925 c -3.118,6.65748 2.76796,15.21985 10.22011,14.92681 l 36.932588,-1.26342 5.835978,6.92239 -8.474994,35.12188 c -1.716467,7.11797 5.707298,14.34729 13.016456,12.67251 l 35.981368,-8.26933 7.094802,5.68036 -1.286674,36.05717 c -0.286493,7.29917 8.467699,13.00742 15.29084,9.96488 l 33.571019,-14.92658 8.174685,4.27775 5.935984,35.50562 c 1.200178,7.22961 10.921033,11.13731 17.000278,6.88071 l 29.909423,-21.02569 8.911304,2.6446 12.909153,33.67729 c 2.61651,6.83879 12.93071,8.85564 18.03715,3.49634 l 25.19634,-26.35705 9.16156,0.89446 19.45301,30.66269 c 3.9195,6.18272 14.45424,6.19671 18.38779,0 l 19.45307,-30.66269 9.1545,-0.89446 25.18909,26.35705 c 5.10661,5.3593 15.41977,3.34245 18.03713,-3.49634 l 12.90945,-33.67729 8.91122,-2.6446 29.91643,21.02569 c 6.079,4.2566 15.79144,0.33482 16.99296,-6.88071 l 5.936,-35.50562 8.17472,-4.27775 33.57133,14.92658 c 6.82285,3.04254 15.56242,-2.65172 15.29053,-9.96488 l -1.28666,-36.05717 7.08779,-5.68036 35.98142,8.26933 c 7.30907,1.67478 14.72553,-5.55454 13.00914,-12.67251 l -8.47512,-35.12188 5.82175,-6.92239 36.94685,1.26342 c 7.45242,0.29261 13.3454,-8.26933 10.21287,-14.92681 l -15.29797,-32.74925 4.3772,-7.98991 36.40336,-5.77819 c 7.40911,-1.15781 11.42865,-10.63485 7.03738,-16.5804 l -21.53463,-29.19031 2.70358,-8.69496 34.52227,-12.59607 c 7.02317,-2.56881 9.07593,-12.61655 3.58323,-17.59897 l -27.00577,-24.58463 0.89515,-8.93241 31.42564,-18.981 c 6.36519,-3.82414 6.37225,-14.10316 0.005,-17.94114 z m -388.49346,-236.849443 34.22925,35.03802 c 7.73832,7.90664 20.55454,8.19962 28.65048,0.64094 l 38.29852,-35.74275 c 79.01786,14.44157 147.53118,62.05276 187.35198,130.194293 l -26.21919,57.780401 c -4.52711,9.999978 0.0853,21.695508 10.31306,26.126716 l 50.4791,21.878138 C 458.69968,170.49206 438.85309,240.08017 381.938,302.301 l -47.00972,-9.8597 c -10.94943,-2.2893 -21.72039,4.50794 -24.06615,15.21274 l -11.157,50.80183 C 227.10056,390.54526 143.76577,390.15524 71.480049,357.38774 L 60.33034,306.58576 C 57.984062,295.8951 47.213601,289.08411 36.271215,291.38 l -45.9654967,9.63021 C -60.849229,244.51176 -90.880243,151.0031 -85.325924,86.4685 L -37.443656,65.707863 C -27.216521,61.276655 -22.596397,49.581077 -27.137854,39.5811 L -56.577129,-15.428452 C -16.08206,-77.241544 59.370223,-130.69291 136.01823,-147.29008 Z m 192.03718,488.91439 c 0,-28.91809 44.45639,-28.91809 44.45639,0 0,28.9181 -44.45639,28.9181 -44.45639,0 M -1.2979397,340.61162 c 0,-28.9181 44.4563677,-28.9181 44.4563677,0 0,28.9181 -44.4563677,28.9181 -44.4563677,0 M 428.54713,35.994438 c 0,-28.9180961 44.45639,-28.9180961 44.45639,0 0,28.918076 -44.45639,28.918076 -44.45639,0 m -530.33676,-1.012836 c 0,-28.9180482 44.456363,-28.9180482 44.456363,0 0,28.918077 -44.456363,28.918077 -44.456363,0 M 163.38245,-161.38816 c 0,-28.9181 44.45638,-28.9181 44.45638,0 0,28.91814 -44.45638,28.91814 -44.45638,0"
               id="path5547" />
          </g>
        </g>
      </g>
      <g
         style="fill:none;fill-opacity:1;stroke:#000000;stroke-opacity:1"
         id="g5553" />
      <g
         style="fill:none;fill-opacity:1;stroke:#000000;stroke-opacity:1"
         id="g5555" />
      <g
         style="fill:none;fill-opacity:1;stroke:#000000;stroke-opacity:1"
         id="g5557" />
      <g
         style="fill:none;fill-opacity:1;stroke:#000000;stroke-opacity:1"
         id="g5559" />
      <g
         style="fill:none;fill-opacity:1;stroke:#000000;stroke-opacity:1"
         id="g5561" />
      <g
         style="fill:none;fill-opacity:1;stroke:#000000;stroke-opacity:1"
         id="g5563" />
      <g
         style="fill:none;fill-opacity:1;stroke:#000000;stroke-opacity:1"
         id="g5565" />
      <g
         style="fill:none;fill-opacity:1;stroke:#000000;stroke-opacity:1"
         id="g5567" />
      <g
         style="fill:none;fill-opacity:1;stroke:#000000;stroke-opacity:1"
         id="g5569" />
      <g
         style="fill:none;fill-opacity:1;stroke:#000000;stroke-opacity:1"
         id="g5571" />
      <g
         style="fill:none;fill-opacity:1;stroke:#000000;stroke-opacity:1"
         id="g5573" />
      <g
         style="fill:none;fill-opacity:1;stroke:#000000;stroke-opacity:1"
         id="g5575" />
      <g
         style="fill:none;fill-opacity:1;stroke:#000000;stroke-opacity:1"
         id="g5577" />
      <g
         style="fill:none;fill-opacity:1;stroke:#000000;stroke-opacity:1"
         id="g5579" />
      <g
         style="fill:none;fill-opacity:1;stroke:#000000;stroke-opacity:1"
         id="g5581" />
    </g>
  </g>
</svg>
